<?xml version="1.0" encoding="UTF-8" standalone="no"?>
<!-- Created with Inkscape (http://www.inkscape.org/) -->

<svg
   width="256"
   height="256"
   viewBox="0 0 256 256"
   version="1.1"
   id="svg350"
   inkscape:version="1.2.2 (b0a8486541, 2022-12-01, custom)"
   sodipodi:docname="all-components.svg"
   inkscape:export-filename="../5b9de733/border.svg"
   inkscape:export-xdpi="96"
   inkscape:export-ydpi="96"
   xmlns:inkscape="http://www.inkscape.org/namespaces/inkscape"
   xmlns:sodipodi="http://sodipodi.sourceforge.net/DTD/sodipodi-0.dtd"
   xmlns="http://www.w3.org/2000/svg"
   xmlns:svg="http://www.w3.org/2000/svg">
  <sodipodi:namedview
     id="namedview352"
     pagecolor="#ffffff"
     bordercolor="#000000"
     borderopacity="0.25"
     inkscape:showpageshadow="2"
     inkscape:pageopacity="0.0"
     inkscape:pagecheckerboard="0"
     inkscape:deskcolor="#d1d1d1"
     inkscape:document-units="px"
     showgrid="false"
     inkscape:zoom="2.8284271"
     inkscape:cx="93.691648"
     inkscape:cy="65.937707"
     inkscape:window-width="1846"
     inkscape:window-height="1016"
     inkscape:window-x="0"
     inkscape:window-y="0"
     inkscape:window-maximized="1"
     inkscape:current-layer="layer1"
     showguides="false">
    <inkscape:grid
       type="xygrid"
       id="grid172"
       empspacing="4"
       enabled="true"
       visible="true"
       dotted="false" />
    <sodipodi:guide
       position="128,219"
       orientation="1,0"
       id="guide334"
       inkscape:locked="false" />
    <sodipodi:guide
       position="55,128"
       orientation="0,-1"
       id="guide336"
       inkscape:locked="false" />
    <sodipodi:guide
       position="-16.916748,128"
       orientation="0,-1"
       id="guide582"
       inkscape:locked="false" />
    <sodipodi:guide
       position="-16.916748,128"
       orientation="0,-1"
       id="guide1627"
       inkscape:locked="false" />
    <sodipodi:guide
       position="-22,124"
       orientation="0,-1"
       id="guide4982"
       inkscape:locked="false" />
  </sodipodi:namedview>
  <defs
     id="defs347">
    <inkscape:path-effect
       effect="offset"
       id="path-effect20978"
       is_visible="true"
       lpeversion="1.2"
       linejoin_type="miter"
       unit="px"
       offset="-10"
       miter_limit="4"
       attempt_force_join="false"
       update_on_knot_move="true" />
    <linearGradient
       id="linearGradient8113"
       inkscape:swatch="solid">
      <stop
         style="stop-color:#252024;stop-opacity:1;"
         offset="0"
         id="stop8111" />
    </linearGradient>
    <linearGradient
       id="linearGradient5788"
       inkscape:swatch="solid">
      <stop
         style="stop-color:#252024;stop-opacity:1;"
         offset="0"
         id="stop5786" />
    </linearGradient>
    <inkscape:path-effect
       effect="offset"
       id="path-effect15139"
       is_visible="true"
       lpeversion="1.2"
       linejoin_type="miter"
       unit="px"
       offset="-3"
       miter_limit="4"
       attempt_force_join="false"
       update_on_knot_move="true" />
  </defs>
  <g
     inkscape:groupmode="layer"
     id="layer2"
     inkscape:label="target"
     style="display:inline;fill:#c061cb"
     sodipodi:insensitive="true">
    <circle
       style="display:none;fill:#8ff0a4;stroke:none;stroke-width:3.59579"
       id="path1009"
       cx="128"
       cy="128"
       r="124"
       inkscape:label="outer" />
    <circle
       style="display:none;fill:#3584e4;stroke:none;stroke-width:0.779744"
       id="path1063"
       cx="128"
       cy="128"
       r="42"
       inkscape:label="inner" />
    <g
       id="g1007"
       style="display:none"
       inkscape:label="score_guides">
      <rect
         style="display:inline;fill:#c061cb;stroke:none;stroke-width:1.11908"
         id="rect793-3"
         width="256"
         height="1"
         x="-51.497921"
         y="-164.55923"
         transform="rotate(110)"
         inkscape:label="line-6" />
      <rect
         style="display:inline;fill:#c061cb;stroke:none;stroke-width:1.11908"
         id="rect793-3-3"
         width="256"
         height="1"
         x="36.059235"
         y="-77.002075"
         transform="rotate(70)"
         inkscape:label="line-1" />
      <rect
         style="display:inline;fill:#c061cb;stroke:none;stroke-width:1.11908"
         id="rect793-3-5"
         width="256"
         height="1"
         x="-29.409803"
         y="-152.31558"
         transform="rotate(102)"
         inkscape:label="line-5" />
      <rect
         style="display:inline;fill:#c061cb;stroke:none;stroke-width:1.11908"
         id="rect793-3-7"
         width="256"
         height="1"
         x="23.81559"
         y="-99.090195"
         transform="rotate(78)"
         inkscape:label="line-2" />
      <rect
         style="display:inline;fill:#c061cb;stroke:none;stroke-width:1.11908"
         id="rect793"
         width="256"
         height="1"
         x="-9.2406301"
         y="-137.11702"
         transform="rotate(94)"
         inkscape:label="line-4" />
      <rect
         style="display:inline;fill:#c061cb;stroke:none;stroke-width:1.11908"
         id="rect793-3-6"
         width="256"
         height="1"
         x="8.6170273"
         y="-119.25937"
         transform="rotate(86)"
         inkscape:label="line-3" />
    </g>
    <path
       style="display:none;fill:none;stroke:#000000"
       d="m 85.11995,11.650091 c 28.58514,-10.1991442 57.17183,-10.2010984 85.7601,0"
       id="path1119"
       sodipodi:nodetypes="cc"
       inkscape:label="outer_arc" />
    <path
       style="display:none;fill:none;stroke:#000000"
       d="m 113.1663,88.706725 c 9.55403,-3.385775 19.39954,-3.826553 29.6674,0"
       id="path1391"
       sodipodi:nodetypes="cc"
       inkscape:label="inner_arc" />
    <g
       id="g1919"
       inkscape:label="score_zones"
       transform="rotate(-90,128,128)"
       style="display:none">
      <path
         style="display:inline;fill:#62a0ea;stroke:none;stroke-width:0.25"
         d="m 125.72244,85.446882 c -0.18814,-0.490677 -5.63921,-80.3774464 -5.4945,-80.5232709 0.26109,-0.2631112 15.28303,-0.2631112 15.54412,0 C 135.88198,5.034375 134.70959,23.18125 133.16676,45.25 l -2.80515,40.125 -2.3058,0.07188 c -1.2682,0.03954 -2.31821,0.03954 -2.33337,0 z"
         id="path1681"
         inkscape:label="4"
         transform="rotate(90,128,128)" />
      <path
         style="display:inline;fill:#ffa348;stroke:none;stroke-width:0.25"
         d="m 133.8459,85.79096 -2.27909,-0.338798 0.10178,-1.038582 c 0.056,-0.571218 1.27398,-17.96983 2.70666,-38.66358 1.43268,-20.69375 2.67598,-38.3414813 2.76289,-39.2171807 l 0.15801,-1.5921807 1.53943,0.1627295 c 5.52081,0.583595 13.71779,1.8666735 14.05045,2.1993249 0.11148,0.111479 -16.25254,77.415757 -16.58003,78.324687 -0.17572,0.487727 -0.24747,0.492497 -2.4601,0.16358 z"
         id="path1752"
         inkscape:label="3_right"
         transform="rotate(90,128,128)" />
      <path
         style="display:inline;fill:#ffa348;stroke:none;stroke-width:0.25"
         d="M 119.52266,85.06109 C 118.44783,80.451045 103.02837,7.3882977 103.11251,7.3041525 c 0.46413,-0.4641238 15.21286,-2.5621154 15.56139,-2.21359 0.12113,0.1211367 5.78927,80.2229275 5.68655,80.3620275 -0.0315,0.04268 -0.82863,0.182585 -1.77137,0.31091 -0.94275,0.128322 -1.95614,0.289647 -2.25198,0.358497 -0.46725,0.108738 -0.57423,-0.03062 -0.81444,-1.060907 z"
         id="path1754"
         inkscape:label="3_left"
         transform="rotate(90,128,128)" />
      <path
         style="display:inline;fill:#f8e45c;stroke:none;stroke-width:0.25"
         d="M 113.7734,87.033785 C 113.19633,85.590872 86.5,12.136261 86.5,11.991377 c 0,-0.390419 14.90008,-4.6746326 15.20331,-4.3714021 0.15427,0.1542703 16.80931,78.7007321 16.70902,78.8010251 -0.0514,0.05141 -1.05692,0.35855 -2.23447,0.682525 l -2.14099,0.589047 z"
         id="path1825"
         inkscape:label="2_left"
         transform="rotate(90,128,128)" />
      <path
         style="display:inline;fill:#f8e45c;stroke:none;stroke-width:0.25"
         d="m 139.75,87.049285 c -1.16875,-0.33387 -2.154,-0.632413 -2.18943,-0.663428 -0.0834,-0.07301 16.61448,-78.6442431 16.74012,-78.76988 0.13686,-0.1368578 6.32243,1.4483353 9.69931,2.485667 5.26441,1.617157 5.53833,1.725052 5.42917,2.138497 -0.18263,0.691764 -27.22074,74.877539 -27.38972,75.150519 -0.11073,0.178875 -0.85861,0.06736 -2.28945,-0.341375 z"
         id="path1827"
         inkscape:label="2_right"
         transform="rotate(90,128,128)" />
      <circle
         style="display:none;fill:#000000;stroke:none;stroke-width:3.36598"
         id="path1882"
         cx="128"
         cy="128"
         r="128"
         inkscape:label="rotator_circle"
         transform="rotate(90,128,128)" />
    </g>
  </g>
  <g
     inkscape:groupmode="layer"
     id="layer4"
     inkscape:label="border"
     style="display:none;fill:#5e5c64">
    <path
       id="path13782"
       style="display:inline;fill:none;stroke:#252024;stroke-width:1;stroke-dasharray:none;stroke-opacity:1"
       d="m 128,3.5019531 c 68.70323,-5.173e-4 124.42752,55.6908839 124.49219,124.3789069 -0.20998,3.5568 -3.27287,6.31057 -6.83594,6.12305 L 245.57617,134 h -80.15429 l -0.0801,0.004 c -3.57704,0.18826 -6.65744,-2.58508 -6.84571,-6.16211 -0.002,-0.44646 -0.0112,-0.89338 -0.0332,-1.33985 -0.0246,-0.49836 -0.0607,-0.99511 -0.10937,-1.48828 -0.0485,-0.49672 -0.10989,-0.99234 -0.1836,-1.49219 -0.0738,-0.49378 -0.15887,-0.98619 -0.25586,-1.4707 -0.0971,-0.48933 -0.20711,-0.9768 -0.32812,-1.46094 -0.12104,-0.48411 -0.25307,-0.96338 -0.39844,-1.44336 -0.14504,-0.47744 -0.30254,-0.95246 -0.4707,-1.42187 -0.16832,-0.47002 -0.3484,-0.93653 -0.53907,-1.39649 -0.19095,-0.46125 -0.39311,-0.91774 -0.60742,-1.37109 -0.21358,-0.45091 -0.43708,-0.89507 -0.66992,-1.33008 -0.2348,-0.44068 -0.48056,-0.87605 -0.74023,-1.31054 -0.25681,-0.42748 -0.52487,-0.8477 -0.80078,-1.25977 -0.27737,-0.41504 -0.56483,-0.82489 -0.86133,-1.22461 -0.29717,-0.40098 -0.60486,-0.79355 -0.91993,-1.17773 -0.31631,-0.38632 -0.64133,-0.76564 -0.98046,-1.14063 -0.33551,-0.36942 -0.68033,-0.72986 -1.0293,-1.07812 -0.35253,-0.35324 -0.71381,-0.69738 -1.08789,-1.03711 -0.37032,-0.33491 -0.74825,-0.66168 -1.13281,-0.97656 -0.38594,-0.31651 -0.77978,-0.62356 -1.17969,-0.91993 -0.40079,-0.29729 -0.80794,-0.58353 -1.2207,-0.85937 -0.41435,-0.27745 -0.83612,-0.54432 -1.26954,-0.80469 -0.42855,-0.25611 -0.86313,-0.50223 -1.29882,-0.73437 -0.44,-0.23551 -0.88686,-0.46122 -1.33985,-0.67579 -0.45127,-0.21332 -0.90727,-0.41507 -1.36718,-0.605464 -0.4613,-0.191226 -0.92679,-0.370861 -1.39649,-0.539063 -0.46973,-0.168273 -0.94394,-0.324918 -1.42383,-0.470703 -0.47753,-0.144627 -0.95902,-0.27734 -1.44336,-0.398438 -0.48392,-0.120953 -0.97076,-0.230095 -1.45508,-0.326171 -0.48954,-0.09799 -0.98066,-0.185036 -1.48046,-0.259766 -0.49383,-0.07282 -0.98901,-0.133479 -1.48243,-0.181641 -0.49647,-0.04902 -0.99517,-0.08473 -1.49414,-0.109375 C 128.99752,97.512587 128.4988,97.500022 128,97.5 c -1.45253,-2.44e-4 -2.90358,0.103984 -4.3418,0.310547 -1.43765,0.206681 -2.85824,0.514625 -4.25195,0.923828 -1.39339,0.409186 -2.75483,0.918014 -4.07617,1.521485 -1.32105,0.60353 -2.59866,1.30059 -3.82031,2.08594 -1.22167,0.78532 -2.38522,1.65648 -3.48243,2.60742 -1.09807,0.95143 -2.12695,1.98035 -3.07812,3.07812 -0.9512,1.09751 -1.82213,2.26081 -2.60742,3.48243 -0.78537,1.22169 -1.48226,2.49893 -2.08594,3.82031 -0.603322,1.32101 -1.112262,2.68266 -1.521485,4.07617 -0.409179,1.39359 -0.717091,2.81586 -0.923828,4.25391 C 97.604042,125.09797 97.499756,126.54747 97.5,128 l 0.0039,-0.1582 c -0.188263,3.57703 -3.26867,6.35037 -6.845703,6.16211 L 90.578125,134 H 10.423828 l -0.08008,0.004 C 6.7806712,134.19144 3.7177888,131.43766 3.5078125,127.88086 3.5724848,59.192838 59.296731,3.5014375 128,3.5019531 Z"
       inkscape:label="border_outer"
       inkscape:path-effect="#path-effect15139"
       inkscape:original-d="M 128,0.50195312 A 127.49709,127.49709 0 0 0 0.50195312,128 9.5131488,9.5131488 0 0 0 10.501953,137 H 90.5 a 9.5131488,9.5131488 0 0 0 10,-9 27.5,27.499952 0 0 1 0.0703,-1.96289 27.5,27.499952 0 0 1 0.20899,-1.95117 27.5,27.499952 0 0 1 0.34765,-1.93164 27.5,27.499952 0 0 1 0.48633,-1.90235 27.5,27.499952 0 0 1 0.61914,-1.86328 27.5,27.499952 0 0 1 0.75196,-1.8125 27.5,27.499952 0 0 1 0.8789,-1.75586 27.5,27.499952 0 0 1 1.00195,-1.6875 27.5,27.499952 0 0 1 1.11915,-1.61133 27.5,27.499952 0 0 1 1.23242,-1.52929 27.5,27.499952 0 0 1 1.33789,-1.4375 27.5,27.499952 0 0 1 1.4375,-1.33789 27.5,27.499952 0 0 1 1.52929,-1.23242 27.5,27.499952 0 0 1 1.61133,-1.11915 27.5,27.499952 0 0 1 1.6875,-1.00195 27.5,27.499952 0 0 1 1.75586,-0.8789 27.5,27.499952 0 0 1 1.8125,-0.75196 27.5,27.499952 0 0 1 1.86328,-0.61914 27.5,27.499952 0 0 1 1.90235,-0.48633 27.5,27.499952 0 0 1 1.93164,-0.34765 27.5,27.499952 0 0 1 1.95117,-0.20899 A 27.5,27.499952 0 0 1 128,100.5 a 27.5,27.499952 0 0 1 1.34961,0.0332 27.5,27.499952 0 0 1 1.3457,0.0996 27.5,27.499952 0 0 1 1.33985,0.16407 27.5,27.499952 0 0 1 1.33007,0.23242 27.5,27.499952 0 0 1 1.31641,0.29492 27.5,27.499952 0 0 1 1.30078,0.35937 27.5,27.499952 0 0 1 1.28125,0.42383 27.5,27.499952 0 0 1 1.25977,0.48633 27.5,27.499952 0 0 1 1.23437,0.54687 27.5,27.499952 0 0 1 1.20508,0.60743 27.5,27.499952 0 0 1 1.17578,0.66406 27.5,27.499952 0 0 1 1.13867,0.72266 27.5,27.499952 0 0 1 1.10352,0.77734 27.5,27.499952 0 0 1 1.06445,0.83008 27.5,27.499952 0 0 1 1.02344,0.88086 27.5,27.499952 0 0 1 0.97656,0.93164 27.5,27.499952 0 0 1 0.93164,0.97656 27.5,27.499952 0 0 1 0.88086,1.02344 27.5,27.499952 0 0 1 0.83008,1.06445 27.5,27.499952 0 0 1 0.77734,1.10352 27.5,27.499952 0 0 1 0.72266,1.13867 27.5,27.499952 0 0 1 0.66406,1.17578 27.5,27.499952 0 0 1 0.60743,1.20508 27.5,27.499952 0 0 1 0.54687,1.23437 27.5,27.499952 0 0 1 0.48633,1.25977 27.5,27.499952 0 0 1 0.42383,1.28125 27.5,27.499952 0 0 1 0.35937,1.30078 27.5,27.499952 0 0 1 0.29492,1.31641 27.5,27.499952 0 0 1 0.23242,1.33007 27.5,27.499952 0 0 1 0.16407,1.33985 27.5,27.499952 0 0 1 0.0996,1.3457 A 27.5,27.499952 0 0 1 155.5,128 a 9.5131488,9.5131488 0 0 0 10,9 h 79.99805 a 9.5131488,9.5131488 0 0 0 10,-9 A 127.49709,127.49709 0 0 0 128,0.50195312 Z M 100.5,128 a 27.5,27.499952 0 0 1 0.2793,-3.91406 27.5,27.499952 0 0 0 -0.20899,1.95117 A 27.5,27.499952 0 0 0 100.5,128 Z m 0.2793,-3.91406 a 27.5,27.499952 0 0 1 0.83398,-3.83399 27.5,27.499952 0 0 0 -0.48633,1.90235 27.5,27.499952 0 0 0 -0.34765,1.93164 z m 0.83398,-3.83399 a 27.5,27.499952 0 0 1 1.3711,-3.67578 27.5,27.499952 0 0 0 -0.75196,1.8125 27.5,27.499952 0 0 0 -0.61914,1.86328 z m 1.3711,-3.67578 a 27.5,27.499952 0 0 1 1.88085,-3.44336 27.5,27.499952 0 0 0 -1.00195,1.6875 27.5,27.499952 0 0 0 -0.8789,1.75586 z m 1.88085,-3.44336 a 27.5,27.499952 0 0 1 2.35157,-3.14062 27.5,27.499952 0 0 0 -1.23242,1.52929 27.5,27.499952 0 0 0 -1.11915,1.61133 z m 2.35157,-3.14062 a 27.5,27.499952 0 0 1 2.77539,-2.77539 27.5,27.499952 0 0 0 -1.4375,1.33789 27.5,27.499952 0 0 0 -1.33789,1.4375 z m 2.77539,-2.77539 a 27.5,27.499952 0 0 1 3.14062,-2.35157 27.5,27.499952 0 0 0 -1.61133,1.11915 27.5,27.499952 0 0 0 -1.52929,1.23242 z m 3.14062,-2.35157 a 27.5,27.499952 0 0 1 3.44336,-1.88085 27.5,27.499952 0 0 0 -1.75586,0.8789 27.5,27.499952 0 0 0 -1.6875,1.00195 z m 3.44336,-1.88085 a 27.5,27.499952 0 0 1 3.67578,-1.3711 27.5,27.499952 0 0 0 -1.86328,0.61914 27.5,27.499952 0 0 0 -1.8125,0.75196 z m 3.67578,-1.3711 a 27.5,27.499952 0 0 1 3.83399,-0.83398 27.5,27.499952 0 0 0 -1.93164,0.34765 27.5,27.499952 0 0 0 -1.90235,0.48633 z m 3.83399,-0.83398 A 27.5,27.499952 0 0 1 128,100.5 a 27.5,27.499952 0 0 0 -1.96289,0.0703 27.5,27.499952 0 0 0 -1.95117,0.20899 z" />
    <path
       id="path20974"
       style="display:inline;fill:none;fill-rule:nonzero;stroke:#252024;stroke-width:1;stroke-linecap:round;stroke-linejoin:miter;stroke-miterlimit:4;stroke-dasharray:none;stroke-opacity:1;paint-order:normal"
       inkscape:path-effect="#path-effect20978"
       inkscape:original-d="m 100.5,128 c -2.2e-4,-1.30967 0.0931,-2.61769 0.2793,-3.91406 -0.0929,0.6477 -0.16256,1.2985 -0.20899,1.95117 -0.0468,0.65325 -0.0703,1.30796 -0.0703,1.96289 z m 0.2793,-3.91406 c 0.18635,-1.29622 0.46505,-2.57748 0.83398,-3.83399 -0.1847,0.62813 -0.34692,1.26265 -0.48633,1.90235 -0.13883,0.63954 -0.25479,1.28383 -0.34765,1.93164 z m 0.83398,-3.83399 c 0.36894,-1.25634 0.82714,-2.48472 1.3711,-3.67578 -0.27214,0.59503 -0.52295,1.19958 -0.75196,1.8125 -0.22849,0.61353 -0.43501,1.23501 -0.61914,1.86328 z m 1.3711,-3.67578 c 0.54417,-1.1911 1.17271,-2.34182 1.88085,-3.44336 -0.35395,0.5504 -0.68815,1.11326 -1.00195,1.6875 -0.31378,0.57464 -0.60693,1.1603 -0.8789,1.75586 z m 1.88085,-3.44336 c 0.70808,-1.10153 1.49394,-2.15107 2.35157,-3.14062 -0.42889,0.49493 -0.83995,1.00501 -1.23242,1.52929 -0.3921,0.52363 -0.76538,1.06108 -1.11915,1.61133 z m 2.35157,-3.14062 c 0.85784,-0.99005 1.78534,-1.91755 2.77539,-2.77539 -0.49494,0.42871 -0.97441,0.87495 -1.4375,1.33789 -0.46294,0.46309 -0.90918,0.94256 -1.33789,1.4375 z m 2.77539,-2.77539 c 0.98955,-0.85763 2.03909,-1.64349 3.14062,-2.35157 -0.55025,0.35377 -1.0877,0.72705 -1.61133,1.11915 -0.52428,0.39247 -1.03436,0.80353 -1.52929,1.23242 z m 3.14062,-2.35157 c 1.10154,-0.70813 2.25226,-1.33668 3.44336,-1.88085 -0.59556,0.27197 -1.18122,0.56512 -1.75586,0.8789 -0.57424,0.3138 -1.1371,0.648 -1.6875,1.00195 z m 3.44336,-1.88085 c 1.19106,-0.54396 2.41944,-1.00216 3.67578,-1.3711 -0.62827,0.18413 -1.24975,0.39065 -1.86328,0.61914 -0.61292,0.22901 -1.21747,0.47982 -1.8125,0.75196 z m 3.67578,-1.3711 c 1.25651,-0.36893 2.53777,-0.64763 3.83399,-0.83398 -0.64781,0.0929 -1.2921,0.20882 -1.93164,0.34765 -0.6397,0.13941 -1.27422,0.30163 -1.90235,0.48633 z m 3.83399,-0.83398 c 1.29637,-0.18618 2.60439,-0.27952 3.91406,-0.2793 -0.65493,5e-5 -1.30964,0.0235 -1.96289,0.0703 -0.65267,0.0464 -1.30347,0.11614 -1.95117,0.20899 z M 128,0.50195312 C 57.584554,0.50142464 0.50142464,57.584554 0.50195312,128 c 0.27614238,5.24671 4.75329478,9.27614 9.99999988,9 H 90.5 c 5.246705,0.27614 9.72386,-3.75329 10,-9 5e-5,-0.65493 0.0235,-1.30964 0.0703,-1.96289 0.0464,-0.65267 0.11614,-1.30347 0.20899,-1.95117 0.0929,-0.64781 0.20882,-1.2921 0.34765,-1.93164 0.13941,-0.6397 0.30163,-1.27422 0.48633,-1.90235 0.18413,-0.62827 0.39065,-1.24975 0.61914,-1.86328 0.22901,-0.61292 0.47982,-1.21747 0.75196,-1.8125 0.27197,-0.59556 0.56512,-1.18122 0.8789,-1.75586 0.3138,-0.57424 0.648,-1.1371 1.00195,-1.6875 0.35377,-0.55025 0.72705,-1.0877 1.11915,-1.61133 0.39247,-0.52428 0.80353,-1.03436 1.23242,-1.52929 0.42871,-0.49494 0.87495,-0.97441 1.33789,-1.4375 0.46309,-0.46294 0.94256,-0.90918 1.4375,-1.33789 0.49493,-0.42889 1.00501,-0.83995 1.52929,-1.23242 0.52363,-0.3921 1.06108,-0.76538 1.61133,-1.11915 0.5504,-0.35395 1.11326,-0.68815 1.6875,-1.00195 0.57464,-0.31378 1.1603,-0.60693 1.75586,-0.8789 0.59503,-0.27214 1.19958,-0.52295 1.8125,-0.75196 0.61353,-0.22849 1.23501,-0.43501 1.86328,-0.61914 0.62813,-0.1847 1.26265,-0.34692 1.90235,-0.48633 0.63954,-0.13883 1.28383,-0.25479 1.93164,-0.34765 0.6477,-0.0929 1.2985,-0.16256 1.95117,-0.20899 0.65325,-0.0468 1.30797,-0.0703 1.9629,-0.0703 0.45007,2e-5 0.90008,0.0111 1.34961,0.0332 0.44931,0.0222 0.89802,0.0554 1.3457,0.0996 0.44789,0.0437 0.89464,0.0984 1.33985,0.16407 0.44519,0.0666 0.88868,0.14407 1.33007,0.23242 0.44115,0.0875 0.88008,0.18586 1.31641,0.29492 0.43647,0.10913 0.87019,0.22896 1.30078,0.35937 0.43049,0.13077 0.8577,0.27209 1.28125,0.42383 0.42384,0.15177 0.84389,0.31393 1.25977,0.48633 0.41587,0.17216 0.82745,0.35451 1.23437,0.54687 0.4066,0.19259 0.80842,0.39513 1.20508,0.60743 0.3973,0.2117 0.78935,0.43312 1.17578,0.66406 0.38541,0.23154 0.76508,0.4725 1.13867,0.72266 0.37414,0.25005 0.7421,0.50924 1.10352,0.77734 0.36156,0.26794 0.71648,0.54472 1.06445,0.83008 0.34831,0.2852 0.68955,0.57891 1.02344,0.88086 0.33309,0.30251 0.65871,0.61315 0.97656,0.93164 0.31849,0.31785 0.62913,0.64347 0.93164,0.97656 0.30195,0.33389 0.59566,0.67513 0.88086,1.02344 0.28536,0.34797 0.56214,0.70289 0.83008,1.06445 0.2681,0.36142 0.52729,0.72938 0.77734,1.10352 0.25016,0.37359 0.49112,0.75326 0.72266,1.13867 0.23094,0.38643 0.45236,0.77848 0.66406,1.17578 0.2123,0.39666 0.41484,0.79848 0.60743,1.20508 0.19236,0.40692 0.37471,0.8185 0.54687,1.23437 0.1724,0.41588 0.33456,0.83593 0.48633,1.25977 0.15174,0.42355 0.29306,0.85076 0.42383,1.28125 0.13041,0.43059 0.25024,0.86431 0.35937,1.30078 0.10906,0.43633 0.20739,0.87526 0.29492,1.31641 0.0884,0.44139 0.16584,0.88488 0.23242,1.33007 0.0656,0.44521 0.12035,0.89196 0.16407,1.33985 0.0442,0.44768 0.0774,0.89639 0.0996,1.3457 0.0221,0.44953 0.0332,0.89954 0.0332,1.34962 0.27614,5.24671 4.75329,9.27614 10,9 h 79.99805 c 5.24671,0.27614 9.72386,-3.75329 10,-9 C 255.49858,57.584553 198.41545,0.50142292 128,0.50195312 Z"
       d="m 90.538901,127.46033 -0.01546,0.0143 -0.0071,0.27292 c 0.0097,-0.0956 0.02057,-0.19115 0.02254,-0.2872 z M 128,10.501953 C 192.50455,10.501467 244.90346,62.62275 245.44727,127 h -79.97071 c -0.008,-0.28109 -0.008,-0.56236 -0.0215,-0.84375 -0.0303,-0.61251 -0.0765,-1.22352 -0.13672,-1.83398 -0.0595,-0.6074 -0.13397,-1.21255 -0.22266,-1.81446 v -0.0117 l -0.002,-0.01 c -0.0898,-0.60057 -0.1951,-1.19944 -0.31445,-1.79688 l -0.004,-0.0176 c -0.11846,-0.59553 -0.25097,-1.1893 -0.39844,-1.7793 -0.14884,-0.59529 -0.31198,-1.18625 -0.49218,-1.78125 -0.17836,-0.58713 -0.37172,-1.16994 -0.57813,-1.7461 -0.20698,-0.57802 -0.42691,-1.15023 -0.66016,-1.71289 -0.23479,-0.56717 -0.48438,-1.12952 -0.75,-1.6914 -0.2625,-0.55418 -0.53856,-1.10157 -0.82812,-1.64258 -0.28601,-0.53612 -0.58471,-1.0662 -0.89648,-1.58789 l -0.006,-0.01 -0.006,-0.01 c -0.31577,-0.52562 -0.64425,-1.04281 -0.98047,-1.54492 -0.34087,-0.51003 -0.6938,-1.01086 -1.05664,-1.5 -0.36546,-0.49315 -0.7446,-0.97865 -1.12891,-1.44727 -0.389,-0.47508 -0.78954,-0.93936 -1.20117,-1.39453 l -0.006,-0.008 -0.008,-0.008 c -0.40816,-0.44941 -0.82633,-0.88924 -1.25586,-1.31836 l -0.008,-0.006 c -0.43127,-0.43193 -0.87243,-0.85337 -1.32421,-1.26368 l -0.008,-0.008 -0.008,-0.006 c -0.45517,-0.411627 -0.91942,-0.813042 -1.38867,-1.197264 -0.47445,-0.389084 -0.95985,-0.766256 -1.44922,-1.128907 -0.49292,-0.365648 -0.9934,-0.718728 -1.49609,-1.054687 -0.50946,-0.341136 -1.02712,-0.670558 -1.55274,-0.986328 l -0.01,-0.0059 -0.01,-0.0059 c -0.52169,-0.311775 -1.05177,-0.610477 -1.58789,-0.896484 -0.54089,-0.289494 -1.08905,-0.566149 -1.65039,-0.832032 -0.55477,-0.262252 -1.11503,-0.511197 -1.67773,-0.74414 -0.56713,-0.235097 -1.14023,-0.455649 -1.7168,-0.66211 -0.57761,-0.206932 -1.16079,-0.399316 -1.75586,-0.580078 -0.58706,-0.177799 -1.17742,-0.341213 -1.77344,-0.490234 -0.58886,-0.147185 -1.18294,-0.279854 -1.7793,-0.398438 -0.60216,-0.12053 -1.20782,-0.227622 -1.81445,-0.318359 h -0.01 l -0.01,-0.002 c -0.60364,-0.08904 -1.20942,-0.163239 -1.81641,-0.222656 -0.61046,-0.06027 -1.22292,-0.106335 -1.83789,-0.136719 -0.61271,-0.03012 -1.22523,-0.04489 -1.83789,-0.04492 -1.78592,-3e-4 -3.57066,0.126776 -5.33984,0.380859 -1.76756,0.254113 -3.51464,0.6335 -5.22852,1.136719 -1.71321,0.503106 -3.38837,1.128816 -5.01367,1.871094 -1.62427,0.742058 -3.19349,1.599003 -4.69531,2.564453 -1.50213,0.96559 -2.93286,2.036446 -4.28125,3.205078 -1.35007,1.169787 -2.61426,2.436057 -3.783204,3.785157 -1.169476,1.34936 -2.241627,2.77941 -3.207031,4.28125 -0.965662,1.50213 -1.821917,3.07193 -2.564453,4.69727 -0.741805,1.62422 -1.367877,3.30008 -1.871094,5.01367 -0.503095,1.71345 -0.882422,3.45967 -1.136719,5.22851 -0.206266,1.43608 -0.269965,2.88638 -0.308593,4.33594 H 10.552734 C 11.096551,62.62276 63.495305,10.501469 128,10.501953 Z"
       inkscape:label="border_inner" />
    <path
       style="display:inline;opacity:1;fill:#d4af37;fill-opacity:1;fill-rule:nonzero;stroke:#d4af37;stroke-width:0.85;stroke-linecap:round;stroke-linejoin:miter;stroke-miterlimit:4;stroke-dasharray:none;stroke-opacity:1;paint-order:normal"
       d="M 8.55337,133.14445 C 6.9347007,132.70916 5.6389972,131.62181 4.8125,130.00513 4.0125386,128.44036 3.9513571,127.07328 4.3813275,120.37073 6.1546877,92.726902 16.764788,67.056082 35.016437,46.25 38.197357,42.623892 45.146912,35.849272 48.75,32.862142 66.858507,17.849333 88.741245,8.2190337 111.48411,5.2537008 122.03229,3.8783751 133.3538,3.8371048 143.75,5.1360819 c 18.12587,2.2647796 36.20459,8.9179801 51.70089,19.0265891 11.08285,7.229611 21.53901,16.761096 29.71855,27.090429 15.63021,19.738252 24.75916,43.595417 26.4495,69.1219 0.43236,6.52913 0.36322,8.07404 -0.43144,9.64095 -0.8429,1.66204 -2.33372,2.83994 -4.06406,3.21103 -1.79247,0.38441 -81.45442,0.38441 -83.24688,0 -1.58855,-0.34068 -3.18727,-1.53306 -3.98188,-2.96982 -0.47465,-0.85823 -0.64889,-1.6652 -0.80717,-3.73832 -0.6427,-8.4182 -3.46329,-14.76738 -9.07509,-20.42822 C 143.97398,99.999422 136.71105,97 128,97 c -8.74882,0 -15.90382,2.957592 -22.01242,9.09906 -5.60396,5.63411 -8.432085,11.99764 -9.075095,20.41978 -0.158278,2.07312 -0.332518,2.88009 -0.807168,3.73832 -0.79461,1.43676 -2.393332,2.62914 -3.981875,2.96982 -1.988987,0.42656 -81.970694,0.34758 -83.570072,-0.0825 z m 82.69474,-7.58195 c 0.340902,-4.8945 1.588285,-9.48695 3.778665,-13.91178 3.449905,-6.96922 9.613945,-13.139093 16.672075,-16.68785 9.74774,-4.901068 21.81,-5.016505 31.90758,-0.30536 11.68248,5.45059 19.77918,16.93713 21.0751,29.89858 l 0.29434,2.94391 h 40.57457 40.57456 l -0.001,-1.0625 C 246.1215,124.32755 245.60371,117.05738 245.23803,114 243.60708,100.3631 239.84739,87.798587 233.71773,75.5 227.44653,62.917415 219.932,52.64074 209.96658,43.01857 193.02421,26.659743 171.16003,15.523082 148.375,11.646495 140.46357,10.300466 138.14487,10.127615 128,10.127615 c -10.14487,0 -12.46358,0.172851 -20.375,1.51888 C 71.632992,17.770083 39.897117,41.138155 23.077424,73.901392 15.322121,89.008025 11.194095,104.10734 10.13272,121.25 c -0.1404683,2.26875 -0.2559193,4.60312 -0.2565583,5.1875 L 9.875,127.5 l 39.9375,0.004 c 25.352497,0.002 40.074447,0.0923 40.3125,0.24618 0.817552,0.52834 0.95222,0.26604 1.12311,-2.1875 z"
       id="path21045"
       inkscape:label="border_fill" />
  </g>
  <g
     inkscape:label="guess"
     inkscape:groupmode="layer"
     id="layer1"
     style="display:inline">
    <g
       id="g687"
       inkscape:label="dial_base"
       style="display:inline;fill:#252024;fill-opacity:1;stroke:#252024;stroke-opacity:1">
      <circle
         style="display:inline;fill:#d4af37;fill-opacity:1;stroke:#252024;stroke-width:1;stroke-dasharray:none;stroke-opacity:1"
         id="path554"
         cx="128"
         cy="128"
         r="21"
         inkscape:label="bottom" />
      <circle
         style="display:inline;opacity:1;fill:#d4af37;fill-opacity:1;stroke:#252024;stroke-width:1;stroke-dasharray:none;stroke-opacity:1"
         id="path608"
         cx="128"
         cy="128"
         r="18"
         inkscape:label="top" />
    </g>
    <path
       id="path20542"
       style="display:inline;fill:none;fill-opacity:1;stroke:#252024;stroke-width:1;stroke-linecap:round;stroke-linejoin:round;stroke-dasharray:none;stroke-opacity:1"
       inkscape:label="mover_outline"
       d="M 120.11344,108.53716 A 21,21 0 0 1 128,107 a 21,21 0 0 1 7.89393,1.54015 m -4.99499,-98.002985 c -0.96631,2.654927 -1.93263,5.309861 -2.89894,7.964788 m -2.89895,-7.964788 c 0.96632,2.654925 1.93263,5.309863 2.89895,7.964788 m 5.00462,72.331824 c -3.3167,-0.446681 -6.69325,-0.44797 -10.01003,-0.0014 M 149.65696,12.498118 133.00462,90.833777 M 106.34304,12.498118 c 5.55051,26.111393 11.10104,52.222866 16.65155,78.334259 M 106.33897,12.499296 c 6.18801,-1.156371 12.46946,-1.809926 18.76257,-1.962219 m 5.79691,0 c 6.29312,0.152294 12.57453,0.805848 18.76255,1.962221 M 135.90066,91.341463 V 108.54288 M 154.4109,4.2635722 C 148.24109,33.288266 142.07126,62.313048 135.90145,91.337742 M 101.58909,4.2635733 c 6.16938,29.0246497 12.33878,58.0493877 18.50816,87.0740377 M 101.58909,4.2635733 c 17.34992,-3.68395215 35.47193,-3.68394716 52.82181,-1.1e-6 M 120.09739,91.3383 v 17.20537 h 0.0449 m 15.72905,0 h 0.0312" />
    <path
       style="display:inline;opacity:1;fill:#d4af37;fill-opacity:1;fill-rule:nonzero;stroke:#d4af37;stroke-width:1;stroke-linecap:round;stroke-linejoin:round;stroke-dasharray:none;stroke-opacity:1;paint-order:normal"
       d="M 120.65009,99.379976 V 91.06512 L 111.5638,48.316794 c -4.99746,-23.511582 -9.11414,-42.9444276 -9.14819,-43.1841046 -0.0609,-0.4287202 -0.019,-0.4437406 2.58975,-0.9276398 6.84561,-1.2698147 13.17129,-1.8907132 20.68287,-2.0301295 9.04393,-0.167857 17.45898,0.5232769 25.8094,2.1197442 2.05423,0.3927366 2.11979,0.4192919 2.07293,0.8396822 -0.0266,0.2387656 -4.1433,19.7002815 -9.1482,43.2478105 l -9.0998,42.813692 v 8.249492 c 0,7.785439 -0.0174,8.242609 -0.30936,8.127089 -1.54175,-0.61004 -4.85035,-1.15286 -7.02687,-1.15286 -2.17653,0 -5.48513,0.54282 -7.02688,1.15286 -0.29198,0.11553 -0.30936,-0.34476 -0.30936,-8.192454 z m 5.83364,-8.265447 c 0.92365,-0.06369 2.8233,-0.0214 4.22143,0.09398 1.43913,0.118762 2.6087,0.143131 2.69566,0.05617 0.17872,-0.178719 16.77098,-78.102624 16.77098,-78.763246 0,-0.243535 -0.11528,-0.487028 -0.25617,-0.541094 -0.38754,-0.148714 -5.72599,-0.960635 -8.22911,-1.251559 -4.00096,-0.465011 -10.75935,-0.8723747 -11.08356,-0.668065 -0.11649,0.07341 -0.73168,1.555268 -1.36709,3.293025 -0.63541,1.737758 -1.18365,3.187914 -1.21831,3.22257 -0.0346,0.03466 -0.57293,-1.340549 -1.19617,-3.05601 -0.62324,-1.715461 -1.21271,-3.227192 -1.30994,-3.359403 -0.38787,-0.5274307 -11.22449,0.374004 -17.4125,1.448443 -2.3125,0.401525 -2.2981,0.396319 -2.2981,0.830749 0,0.451084 16.59964,78.625567 16.74556,78.861665 0.0529,0.08564 0.58261,0.109098 1.17708,0.05214 0.59447,-0.05696 1.83658,-0.155673 2.76024,-0.219362 z"
       id="path20607"
       inkscape:label="mover_fill" />
  </g>
</svg>
